<svg xmlns="http://www.w3.org/2000/svg" width="512" height="512" style="" viewBox="0 0 512 512" data-svgdocument="" id="_0SsX9bP_YxB53v9WX5GwQ" class="fl-svgdocument" x="0" y="0" data-bbox="26.999985827222616 168.32800807302664 454.45354387784164 164.11142680821928">
  <rect data-fl-background="" x="0" y="0" width="512" height="512" fill="#ffffff" />
  <path text="IFM " fill="#0d4b80" space="preserve" text-anchor="middle" offset="0.5" font-scale="contain" font-size="48" font-family="Black Ops One" transform="matrix(2.9048752784729004, 0, 0, 2.632909059524536, 365.7019348144531, 286.8025207519531)" font-weight="400" font-style="normal" stroke="#f5f5f5" stroke-width="0" letter-spacing="2" data-fl-textpath="" d="M-54.74171875 0L-54.74171875-6.63L-51.62171875-6.63L-51.62171875-24.49L-54.74171875-24.49L-54.74171875-31.1L-38.141718749999995-31.1L-38.141718749999995-24.49L-41.26171875-24.49L-41.26171875-6.63L-38.141718749999995-6.63L-38.141718749999995 0L-54.74171875 0ZM-31.131093749999998 0L-31.131093749999998-31.1L-20.77109375-31.1L-20.77109375-17.2L-11.21109375-17.2L-11.21109375-11.09L-20.77109375-11.09L-20.77109375 0L-31.131093749999998 0ZM-13.69109375-24.89L-19.131093749999998-24.89L-19.131093749999998-31.1L-3.331093750000001-31.1L-3.331093750000001-20.79L-13.69109375-20.79L-13.69109375-24.89ZM 20.48734375 0L 2.04734375-31.1L 13.05734375-31.1L 21.40734375-17.27L 27.96734375-28.52L 27.96734375-12.87L 20.48734375 0ZM 39.84734375 0L 29.48734375 0L 29.48734375-31.1L 39.84734375-31.1L 39.84734375 0ZM 11.69734375 0L 2.01734375 0L 2.01734375-28.22L 11.69734375-11.98L 11.69734375 0Z" />
  <path text="LOGISTICS INC" fill="#387cb5" space="preserve" text-anchor="middle" offset="0.5" font-scale="contain" font-size="48" font-family="Black Ops One" transform="matrix(0.6948927640914917, 0, 0, 0.7276423573493958, 343.8916015625, 316.02154541015625)" font-weight="400" font-style="normal" stroke="#f5f5f5" stroke-width="0" letter-spacing="2" data-fl-textpath="" d="M-187.09140625 0L-197.45140625 0L-197.45140625-31.1L-187.09140625-31.1L-187.09140625 0ZM-170.92140625 0L-185.45140625 0L-185.45140625-6.21L-180.31140625-6.21L-180.31140625-10.15L-170.92140625-10.15L-170.92140625 0ZM-156.09609375-24.8L-156.09609375-6.33L-152.20609375-6.33L-152.20609375 0L-160.17609375 0L-166.47609375-6.21L-166.47609375-24.89L-160.17609375-31.1L-152.20609375-31.1L-152.20609375-24.8L-156.09609375-24.8ZM-146.60609375-6.33L-146.60609375-24.8L-150.56609375-24.8L-150.56609375-31.1L-142.52609375-31.1L-136.24609375-24.89L-136.24609375-6.21L-142.52609375 0L-150.56609375 0L-150.56609375-6.33L-146.60609375-6.33ZM-119.15703125-31.1L-119.15703125-6.21L-110.26703125-6.21L-110.26703125 0L-123.29703125 0L-129.50703125-6.21L-129.50703125-24.89L-123.29703125-31.1L-119.15703125-31.1ZM-113.66703125000001-11.09L-113.66703125000001-17.25L-99.43703124999999-17.25L-99.43703124999999 0L-108.62703125 0L-108.62703125-11.09L-113.66703125000001-11.09ZM-109.79703125-24.89L-117.50703125-24.89L-117.50703125-31.1L-104.87703125-31.1L-99.43703124999999-24.89L-99.43703124999999-21.77L-109.79703125-21.77L-109.79703125-24.89ZM-92.89796875 0L-92.89796875-6.63L-89.77796875-6.63L-89.77796875-24.49L-92.89796875-24.49L-92.89796875-31.1L-76.29796875-31.1L-76.29796875-24.49L-79.41796875-24.49L-79.41796875-6.63L-76.29796875-6.63L-76.29796875 0L-92.89796875 0ZM-45.897343750000005 0L-50.06734375 0L-50.06734375-11.65L-63.51734375-11.65L-69.75734375-17.88L-69.75734375-24.89L-63.51734375-31.1L-60.007343750000004-31.1L-60.007343750000004-20.06L-45.70734375-20.06L-39.68734375-13.83L-39.68734375-6.21L-45.897343750000005 0ZM-50.06734375-25.5L-58.36734375-25.5L-58.36734375-31.1L-45.91734375-31.1L-40.52734375-25.69L-40.52734375-22.38L-50.06734375-22.38L-50.06734375-25.5ZM-69.75734375-6.21L-69.75734375-9.33L-59.39734375-9.33L-59.39734375-5.63L-51.70734375-5.63L-51.70734375 0L-64.52734375 0L-69.75734375-6.21ZM-26.08015625 0L-26.08015625-22.71L-15.30015625-22.71L-15.30015625 0L-26.08015625 0ZM-34.19015625-24.33L-34.19015625-31.1L-7.190156250000001-31.1L-7.190156250000001-24.33L-34.19015625-24.33ZM-1.70265625 0L-1.70265625-6.63L 1.4173437499999997-6.63L 1.4173437499999997-24.49L-1.70265625-24.49L-1.70265625-31.1L 14.897343750000001-31.1L 14.897343750000001-24.49L 11.77734375-24.49L 11.77734375-6.63L 14.897343750000001-6.63L 14.897343750000001 0L-1.70265625 0ZM 31.797968750000003-31.1L 31.797968750000003 0L 27.677968749999998 0L 21.43796875-6.21L 21.43796875-24.89L 27.677968749999998-31.1L 31.797968750000003-31.1ZM 40.32796875-24.89L 33.437968749999996-24.89L 33.437968749999996-31.1L 44.47796875-31.1L 50.687968749999996-24.89L 50.687968749999996-18.63L 40.32796875-18.63L 40.32796875-24.89ZM 44.47796875 0L 33.437968749999996 0L 33.437968749999996-6.21L 40.32796875-6.21L 40.32796875-10.76L 50.687968749999996-10.76L 50.687968749999996-6.21L 44.47796875 0ZM 81.04796875 0L 76.87796875000001 0L 76.87796875000001-11.65L 63.42796875-11.65L 57.18796875-17.88L 57.18796875-24.89L 63.42796875-31.1L 66.93796875-31.1L 66.93796875-20.06L 81.23796875-20.06L 87.25796875-13.83L 87.25796875-6.21L 81.04796875 0ZM 76.87796875000001-25.5L 68.57796875-25.5L 68.57796875-31.1L 81.02796875-31.1L 86.41796875-25.69L 86.41796875-22.38L 76.87796875000001-22.38L 76.87796875000001-25.5ZM 57.18796875-6.21L 57.18796875-9.33L 67.54796875-9.33L 67.54796875-5.63L 75.23796875-5.63L 75.23796875 0L 62.41796875 0L 57.18796875-6.21ZM 108.22703125 0L 108.22703125-6.63L 111.34703125-6.63L 111.34703125-24.49L 108.22703125-24.49L 108.22703125-31.1L 124.82703125-31.1L 124.82703125-24.49L 121.70703125-24.49L 121.70703125-6.63L 124.82703125-6.63L 124.82703125 0L 108.22703125 0ZM 142.78765625-31.1L 161.69765625 0L 150.68765625 0L 131.83765625-31.1L 142.78765625-31.1ZM 140.86765625 0L 131.83765625 0L 131.83765625-28.15L 140.86765625-13.36L 140.86765625 0ZM 152.67765624999998-31.1L 161.69765625-31.1L 161.69765625-2.95L 152.67765624999998-17.81L 152.67765624999998-31.1ZM 179.07140625-31.1L 179.07140625 0L 174.95140625 0L 168.71140625-6.21L 168.71140625-24.89L 174.95140625-31.1L 179.07140625-31.1ZM 187.60140625-24.89L 180.71140625-24.89L 180.71140625-31.1L 191.75140625-31.1L 197.96140625-24.89L 197.96140625-18.63L 187.60140625-18.63L 187.60140625-24.89ZM 191.75140625 0L 180.71140625 0L 180.71140625-6.21L 187.60140625-6.21L 187.60140625-10.76L 197.96140625-10.76L 197.96140625-6.21L 191.75140625 0Z" />
  <g transform="matrix(1.2747802734375, 0, 0, 1.2631959915161133, -221.2353057861328, 2.712958335876465)">
    <path d="M172.5 372.4c0.3 13.4 17.4 18.5 25.6 7.9c5.1-6.6 13-10.9 22-10.9c6.6 0 12.6 2.3 17.3 6.2c-7.7-15.1-23.2-25.6-41.2-26  c-12.7-0.3-23.5 9.5-23.7 22.2C172.5 371.9 172.5 372.2 172.5 372.4z" transform="matrix(0.19411219656467438, 1.3984308242797852, -1.3984308242797852, 0.19411219656467438, 770.7901611328125, -152.73684692382812)" fill="#387cb5" />
    <path d="M169.7 419.5c0.2 0 0.5 0 0.8 0c13.4-0.3 18.5-17.4 7.9-25.6c-6.6-5.1-10.9-13-10.9-22c0-6.6 2.3-12.6 6.2-17.3  c-15.1 7.7-25.6 23.2-26 41.2C147.2 408.4 157 419.3 169.7 419.5z" transform="matrix(0.24643291532993317, 1.0614631175994873, -1.0614631175994873, 0.24643291532993317, 630.3422241210938, -113.03581237792969)" fill="#0d4b80" />
    <path d="M217.5 421.6c-0.3-13.4-17.4-18.5-25.6-7.9c-5.1 6.6-13 10.9-22 10.9c-6.6 0-12.6-2.3-17.3-6.2c7.7 15.1 23.2 25.6 41.2 26  c12.7 0.3 23.5-9.5 23.7-22.2C217.5 422.1 217.5 421.8 217.5 421.6z" transform="matrix(0.16084980964660645, 1.1588001251220703, -1.1588001251220703, 0.16084980964660645, 685.1607666015625, -96.12272644042969)" fill="rgba(56,124,181,1)" />
    <path d="M220.3 374.5c-0.2 0-0.5 0-0.8 0c-13.4 0.3-18.5 17.4-7.9 25.6c6.6 5.1 10.9 13 10.9 22c0 6.6-2.3 12.6-6.2 17.3  c15.1-7.7 25.6-23.2 26-41.2C242.8 385.6 233 374.7 220.3 374.5z" transform="matrix(-0.09516171365976334, 1.3099136352539062, -1.3099136352539062, -0.09516171365976334, 803.6548461914062, -20.752405166625977)" fill="#0d4b80" />
    <path d="M169.7 419.5c0.2 0 0.5 0 0.8 0c13.4-0.3 18.5-17.4 7.9-25.6c-6.6-5.1-10.9-13-10.9-22c0-6.6 2.3-12.6 6.2-17.3  c-15.1 7.7-25.6 23.2-26 41.2C147.2 408.4 157 419.3 169.7 419.5z" transform="matrix(0.18388991057872772, 0.2274194061756134, -0.3211129307746887, 0.2596498131752014, 339.48809814453125, 15.05623722076416)" fill="#f5f5f5" />
  </g>
</svg>